<?xml version="1.0" standalone="no"?><!DOCTYPE svg PUBLIC "-//W3C//DTD SVG 1.1//EN" "http://www.w3.org/Graphics/SVG/1.1/DTD/svg11.dtd"><svg t="1740554091475" class="icon" viewBox="0 0 1024 1024" version="1.1" xmlns="http://www.w3.org/2000/svg" p-id="3534" xmlns:xlink="http://www.w3.org/1999/xlink" width="200" height="200"><path d="M390.1632 225.1264h-15.616v80.896h15.616z m67.1616 0h-15.616v80.896h15.616z m91.7632-154.3808l-16-27.7504L265.9904 197.376l16 27.7504z" fill="#13BEF9" p-id="3535"></path><path d="M547.5264 70.7456l16.0128-27.7504L830.6368 197.376l-16.0128 27.7504z" fill="#13BEF9" p-id="3536"></path><path d="M877.8944 225.5104v-32.0384H146.1056v32.0384z" fill="#13BEF9" p-id="3537"></path><path d="M588.1408 678.1056V203.2384h32.0256v497.9328c-8.5888-9.7792-19.5328-16.8064-32.0256-23.0656z m-54.6688-8.2048V0h32.0256v673.8048c-8.9856-4.3008-30.848-3.904-32.0256-3.904zM230.0608 736.7296c-39.0528-28.9152-64.8192-75.0336-64.8192-127.4112 0-27.7504 7.4112-55.104 21.0816-78.9504h273.344c14.0544 23.8464 21.0944 51.2 21.0944 78.9504 0 24.2304-3.1232 46.8992-12.8896 67.2256-20.6976-19.9296-51.1616-28.5312-82.0096-28.5312-54.6688 0-101.5296 33.9968-113.6256 84.8128-4.3008-0.3968-7.0272-0.7808-11.328-0.7808-10.5472 0.384-20.6976 1.9584-30.848 4.6848z" fill="#13BEF9" p-id="3538"></path><path d="M364.384 341.9904h-82.7776v83.2384h82.7776z m-93.3248 0H188.2816v83.2384h82.7776z m0 92.6208H188.2816v83.2512h82.7776z m93.3248 0h-82.7776v83.2512h82.7776z m92.9408 0h-82.7776v83.2512h82.7776z m0-137.1776h-82.7776v83.2384h82.7776z" fill="#13BEF9" p-id="3539"></path><path d="M285.8944 749.2352c11.328-48.064 54.6688-84.032 106.2144-84.032 33.2032 0 62.8736 14.8608 83.1872 38.3104 17.5616-12.1216 38.656-19.1488 61.696-19.1488 60.1344 0 108.9408 48.8448 108.9408 109.0432 0 12.5056-1.9456 24.2304-5.8496 35.5584 13.2736 17.984 21.4784 40.6528 21.4784 64.8832 0 60.1856-48.8192 109.0432-108.9536 109.0432-26.56 0-50.7648-9.3824-69.504-25.0112-19.9168 27.7504-52.3264 46.1184-89.0368 46.1184-42.176 0-78.8864-24.2304-97.2288-59.4048-7.424 1.5616-14.848 2.3424-22.656 2.3424-60.1344 0-109.3376-48.8576-109.3376-109.0432s48.8192-109.0432 109.3376-109.0432c3.904-0.3968 7.808-0.3968 11.712 0.384z" fill="#13BEF9" p-id="3540"></path></svg>